<?xml version="1.0" encoding="UTF-8" standalone="no"?>
<svg
   xmlns:dc="http://purl.org/dc/elements/1.1/"
   xmlns:cc="http://creativecommons.org/ns#"
   xmlns:rdf="http://www.w3.org/1999/02/22-rdf-syntax-ns#"
   xmlns:svg="http://www.w3.org/2000/svg"
   xmlns="http://www.w3.org/2000/svg"
   xmlns:sodipodi="http://sodipodi.sourceforge.net/DTD/sodipodi-0.dtd"
   xmlns:inkscape="http://www.inkscape.org/namespaces/inkscape"
   width="16"
   height="16"
   version="1.1"
   id="svg4"
   sodipodi:docname="finance-check-symbolic.svg"
   inkscape:version="1.0.2 (e86c870879, 2021-01-15, custom)">
  <metadata
     id="metadata10">
    <rdf:RDF>
      <cc:Work
         rdf:about="">
        <dc:format>image/svg+xml</dc:format>
        <dc:type
           rdf:resource="http://purl.org/dc/dcmitype/StillImage" />
        <dc:title />
      </cc:Work>
    </rdf:RDF>
  </metadata>
  <defs
     id="defs8" />
  <sodipodi:namedview
     pagecolor="#ffffff"
     bordercolor="#666666"
     borderopacity="1"
     objecttolerance="10"
     gridtolerance="10"
     guidetolerance="10"
     inkscape:pageopacity="0"
     inkscape:pageshadow="2"
     inkscape:window-width="1366"
     inkscape:window-height="708"
     id="namedview6"
     showgrid="false"
     showguides="false"
     inkscape:zoom="29.437191"
     inkscape:cx="8.8460945"
     inkscape:cy="6.6652838"
     inkscape:window-x="0"
     inkscape:window-y="32"
     inkscape:window-maximized="1"
     inkscape:current-layer="layer1"
     inkscape:document-rotation="0"
     inkscape:snap-page="true" />
  <g
     inkscape:groupmode="layer"
     id="layer1"
     inkscape:label="layer"
     style="display:inline">
    <path
       id="rect8"
       style="fill:#000000"
       d="M 14.5625,5.3339844 V 11.785156 H 2.9472656 v 0.511719 H 14.5625 15.097656 V 11.785156 5.3339844 Z"
       inkscape:label="base_one" />
    <path
       id="rect8-3"
       style="display:inline;fill:#000000"
       d="m 13.627235,4.522 v 6.451172 H 2.012 v 0.511719 h 11.615235 0.535156 V 10.973172 4.522 Z"
       inkscape:label="base_two" />
    <path
       id="rect33"
       style="fill:#000000;stroke-width:1.01988"
       inkscape:label="check"
       d="M 0.90625,3.6855469 V 10.685547 H 13.205078 V 3.6855469 Z M 1.6621094,4.2578125 H 12.4375 c 0.117521,0 0.210937,0.09537 0.210938,0.2128906 v 5.3554688 c 0,0.1175211 -0.09342,0.2109371 -0.210938,0.2109371 H 1.6621094 c -0.1175212,0 -0.2128906,-0.093416 -0.2128906,-0.2109371 V 4.4707031 c 0,-0.1175211 0.095369,-0.2128906 0.2128906,-0.2128906 z M 2.0703125,4.78125 c -0.1108,0 -0.1992187,0.088419 -0.1992187,0.1992188 v 0.00977 c -10e-8,0.1108 0.088419,0.1992187 0.1992187,0.1992187 h 9.9843755 c 0.1108,0 0.199218,-0.088419 0.199218,-0.1992187 v -0.00977 c 0,-0.1108001 -0.08842,-0.1992188 -0.199218,-0.1992188 z m 0,0.609375 c -0.1108,0 -0.1992187,0.088419 -0.1992187,0.1992188 v 0.015625 c -10e-8,0.1108 0.088419,0.2011718 0.1992187,0.2011718 h 6.8164063 c 0.1108,0 0.1992187,-0.090372 0.1992187,-0.2011718 v -0.015625 c 0,-0.1108001 -0.088419,-0.1992188 -0.1992187,-0.1992188 z M 1.9609375,8.5039062 V 9.6425781 H 6.7167969 V 8.5039062 Z m 9.9628905,0.1542969 a 0.14073947,0.12613443 0 0 0 -0.140625,0.125 0.14073947,0.12613443 0 0 0 0.140625,0.1269531 0.14073947,0.12613443 0 0 0 0.140625,-0.1269531 0.14073947,0.12613443 0 0 0 -0.140625,-0.125 z M 2.2871094,8.8652344 H 4.15625 V 9.2539062 H 2.2871094 Z m 2.1699218,0 H 6.3261719 V 9.2539062 H 4.4570312 Z m 3.5625,0.4238281 c -0.091966,0 -0.1660156,0.07405 -0.1660156,0.1660156 0,0.091966 0.07405,0.1660157 0.1660156,0.1660157 h 4.0527348 c 0.09196,0 0.166015,-0.07405 0.166015,-0.1660157 0,-0.091966 -0.07405,-0.1660156 -0.166015,-0.1660156 z" />
    <path
       style="fill:none;stroke:#000000;stroke-width:0.227749px;stroke-linecap:butt;stroke-linejoin:miter;stroke-opacity:1"
       d="m 7.6020701,9.0250499 c -0.00953,0.011396 -0.01872,0.023226 -0.028603,0.03419 -0.00447,0.00496 -0.011493,0.00508 -0.016828,0.00862 -0.0035,0.00233 -0.00614,0.00624 -0.00962,0.00862 -0.02505,0.017111 -0.07543,0.02429 -0.1033719,0.020115 -0.080793,-0.012071 -0.1205942,-0.052194 -0.1754919,-0.1178137 -0.011632,-0.013905 -0.026231,-0.027437 -0.03606,-0.043102 -0.00322,-0.00514 -0.00458,-0.011641 -0.00721,-0.017241 -0.013693,-0.029097 -0.015365,-0.027201 -0.026444,-0.05747 -0.00549,-0.014995 -0.00903,-0.030932 -0.014424,-0.045976 -0.0089,-0.024833 -0.018348,-0.049554 -0.026444,-0.074711 -0.00803,-0.015863 -0.00704,-0.034849 -0.01202,-0.051723 -0.00239,-0.00808 -0.00704,-0.014992 -0.00962,-0.022988 -0.00146,-0.00456 -0.00121,-0.0097 -0.0024,-0.014368 -0.010393,-0.040375 -0.022024,-0.081295 -0.026444,-0.1235607 -0.00369,-0.035271 -0.0024,-0.07086 -0.0024,-0.1063197 0,-0.030607 -0.00332,-0.064433 0,-0.094826 0.00169,-0.015462 0.0052,-0.030571 0.00721,-0.045976 0.00672,-0.051445 0.00926,-0.1038912 0.016828,-0.1551693 0.00833,-0.056431 0.023981,-0.1113191 0.03606,-0.1666631 0.00989,-0.045326 0.020311,-0.090216 0.031252,-0.1350548 0.016792,-0.068821 0.00187,-0.023968 0.021636,-0.094826 0.023604,-0.084642 0.057543,-0.1749546 0.093756,-0.2528685 0.013451,-0.02894 0.031604,-0.063117 0.045676,-0.091952 0.018582,-0.038074 0.036883,-0.07558 0.057696,-0.1120666 0.022223,-0.03896 0.049033,-0.078724 0.076928,-0.1120667 0.036105,-0.043157 0.075652,-0.081787 0.10818,-0.1293077 0.025036,-0.036576 0.052761,-0.071287 0.081736,-0.1034463 0.020002,-0.0222 0.04369,-0.039813 0.064908,-0.060344 0.033579,-0.032492 0.084371,-0.074773 0.127412,-0.086205 0.051841,-0.01377 0.090716,0.0041 0.1346238,0.034482 0.041484,0.028708 0.074023,0.060257 0.1057759,0.1034462 0.043167,0.058715 0.068904,0.1298508 0.093756,0.2011454 0.012584,0.036103 0.026504,0.071663 0.03606,0.1091932 0.017403,0.068345 0.025511,0.1363052 0.033656,0.2068924 8.541e-4,0.00739 0.00675,0.053294 0.00721,0.066091 0.00104,0.028708 0,0.05747 0,0.086205 0,0.035584 5.625e-4,0.070831 -0.0024,0.1063197 -0.00295,0.035214 -0.00678,0.074939 -0.014424,0.1091933 -0.00326,0.014633 -0.00882,0.028448 -0.01202,0.043102 -0.00162,0.00747 -0.00125,0.01539 -0.0024,0.022988 -0.00485,0.031909 -0.00876,0.072585 -0.016828,0.1034461 -0.0016,0.00613 -0.00526,0.011253 -0.00721,0.017241 -0.00347,0.010654 -0.013963,0.050375 -0.016828,0.063217 -0.00678,0.0304 -0.013199,0.061307 -0.019232,0.091952 -0.00187,0.00951 -0.00222,0.019468 -0.00481,0.028735 -0.00306,0.01098 -0.00871,0.020732 -0.01202,0.031609 -0.00776,0.025491 -0.00944,0.051377 -0.014424,0.077585 -0.00443,0.023281 -0.010305,0.04558 -0.014424,0.068964 -0.00252,0.014338 -0.00334,0.029203 -0.00721,0.043103 -0.015113,0.054193 -0.036418,0.1062748 -0.050484,0.1609162 -0.00735,0.02855 0.00415,-8.142e-4 -0.00721,0.034482 -0.00528,0.016397 -0.013149,0.032503 -0.019125,0.048593 -0.00524,0.014117 -0.00706,0.02888 -0.01202,0.043103 -0.00763,0.021898 -0.023987,0.045715 -0.023987,0.069713 0,0.00269 0,-0.00538 0,-0.00807 0,-0.013585 -7.083e-4,7.047e-4 0.00721,-0.022988 0.00914,-0.032783 0.00422,-0.017508 0.014424,-0.045976 0.025917,-0.072283 0.059653,-0.1408759 0.091352,-0.209766 0.00881,-0.018199 0.01763,-0.036398 0.026444,-0.054596 0.00321,-0.00862 0.00587,-0.017555 0.00962,-0.025861 C 8.237558,8.250676 8.166904,8.4153693 8.222719,8.2930583 8.246712,8.2404803 8.268165,8.1860281 8.294839,8.1350157 8.31578,8.0949667 8.341753,8.0585537 8.364555,8.0200752 c 0.016598,-0.02801 0.032373,-0.055936 0.052888,-0.080458 0.022859,-0.027324 0.051168,-0.054183 0.076928,-0.077585 0.04873,-0.044268 0.1097064,-0.080394 0.1706839,-0.043103 0.097185,0.059433 0.1499334,0.1952796 0.1923197,0.307465 0.016463,0.043573 0.034403,0.087223 0.04808,0.1321814 0.00219,0.0072 0.00645,0.029782 0.00962,0.037356 0.00179,0.00428 0.00542,0.00721 0.00721,0.011494 0.00235,0.00561 0,0.019153 0,0.026103 0,0.00102 0,-0.00204 0,-0.00306 0,-0.020937 -7.291e-4,0.00928 0.00481,-0.025424 0.00814,-0.051086 0.0075,-0.1038646 0.014424,-0.1551693 0.018638,-0.1381292 0.056303,-0.2440429 0.1322199,-0.3505677 0.014824,-0.0208 0.035645,-0.038108 0.052888,-0.054597 0.05071,-0.048491 0.1001999,-0.088943 0.1658759,-0.1005728 0.077701,-0.01376 0.1348428,0.011138 0.1995318,0.060344 0.013688,0.010413 0.027627,0.020398 0.040868,0.031609 0.07011,0.05936 0.1527309,0.1908485 0.1923198,0.2787299 0.01433,0.03181 0.034481,0.1034379 0.043272,0.1408017 0.02601,0.1105429 0.021636,0.2284051 0.021636,0.3419472 0,0.034482 0,0.068964 0,0.1034462 0,0.010536 0,0.021072 0,0.031609 0,0.00412 -0.00724,0.013573 -0.00656,0.00954 C 9.78753,8.6185078 9.815932,8.5213473 9.821794,8.5022401 9.9940269,7.9408315 9.816344,8.5231111 9.90353,8.2436247 9.925547,8.1730477 9.948509,8.1024482 9.968438,8.0309853 c 0.00938,-0.033621 0.019746,-0.066844 0.028848,-0.1005725 0.00514,-0.019035 0.00694,-0.039581 0.014424,-0.05747 0.01667,-0.039859 0.07277,-0.1611098 0.110584,-0.1724106 0.062,-0.018528 0.145547,0.073039 0.1803,0.123561 0.06887,0.1001212 0.121138,0.2177008 0.158664,0.3390736 0.01449,0.046864 0.02459,0.096473 0.03846,0.1436753 0.02305,0.078421 0.05446,0.1558155 0.09376,0.2241332 0.04356,0.075738 0.07627,0.1250022 0.163472,0.1178137 0.115959,-0.00956 0.198967,-0.074067 0.293287,-0.1522957 0.03574,-0.029645 0.06228,-0.062169 0.09376,-0.1005728 0.06987,-0.085251 0.116953,-0.1662257 0.15626,-0.2758564 0.01312,-0.036602 0.02885,-0.074512 0.02885,-0.1149402 0,-0.016826 0,-0.033653 0,-0.050479 0,-0.00167 -0.0014,-0.00496 0,-0.00501 0.01372,-5.104e-4 0.02738,0.00232 0.04108,0.00348"
       id="path67"
       inkscape:label="signature" />
  </g>
</svg>
