<?xml version="1.0" encoding="UTF-8" standalone="no"?>
<svg
   xmlns:dc="http://purl.org/dc/elements/1.1/"
   xmlns:cc="http://creativecommons.org/ns#"
   xmlns:rdf="http://www.w3.org/1999/02/22-rdf-syntax-ns#"
   xmlns:svg="http://www.w3.org/2000/svg"
   xmlns="http://www.w3.org/2000/svg"
   xmlns:sodipodi="http://sodipodi.sourceforge.net/DTD/sodipodi-0.dtd"
   xmlns:inkscape="http://www.inkscape.org/namespaces/inkscape"
   width="16"
   height="16"
   version="1.1"
   id="svg4"
   sodipodi:docname="finance-cash-symbolic.svg"
   inkscape:version="1.0.2 (e86c870879, 2021-01-15, custom)">
  <metadata
     id="metadata10">
    <rdf:RDF>
      <cc:Work
         rdf:about="">
        <dc:format>image/svg+xml</dc:format>
        <dc:type
           rdf:resource="http://purl.org/dc/dcmitype/StillImage" />
        <dc:title />
      </cc:Work>
    </rdf:RDF>
  </metadata>
  <defs
     id="defs8" />
  <sodipodi:namedview
     pagecolor="#ffffff"
     bordercolor="#666666"
     borderopacity="1"
     objecttolerance="10"
     gridtolerance="10"
     guidetolerance="10"
     inkscape:pageopacity="0"
     inkscape:pageshadow="2"
     inkscape:window-width="1366"
     inkscape:window-height="708"
     id="namedview6"
     showgrid="false"
     showguides="true"
     inkscape:zoom="29.437191"
     inkscape:cx="13.567967"
     inkscape:cy="5.0524525"
     inkscape:window-x="0"
     inkscape:window-y="32"
     inkscape:window-maximized="1"
     inkscape:current-layer="layer1"
     inkscape:document-rotation="0" />
  <g
     inkscape:groupmode="layer"
     id="layer1"
     inkscape:label="layer"
     style="display:inline">
    <path
       id="rect8"
       style="fill:#000000"
       d="M 14.5625,5.3339844 V 11.785156 H 2.9472656 v 0.511719 H 14.5625 15.097656 V 11.785156 5.3339844 Z"
       inkscape:label="base_one" />
    <path
       id="rect8-3"
       style="display:inline;fill:#000000"
       d="m 13.627235,4.522 v 6.451172 H 2.012 v 0.511719 h 11.615235 0.535156 V 10.973172 4.522 Z"
       inkscape:label="base_two" />
    <path
       id="rect33"
       style="fill:#000000;stroke-width:1.01988"
       inkscape:label="cash"
       d="M 0.90625,3.6855469 V 10.685547 H 13.205078 V 3.6855469 Z m 5.9140625,0.5117187 a 2.9685729,2.9685729 0 0 1 0.027344,0 2.9685729,2.9685729 0 0 1 2.96875,2.96875 2.9685729,2.9685729 0 0 1 -2.96875,2.9687504 2.9685729,2.9685729 0 0 1 -2.96875,-2.9687504 2.9685729,2.9685729 0 0 1 2.9414063,-2.96875 z M 6.6738281,4.6308594 V 5.2617188 C 6.3085938,5.2867839 6.027181,5.382487 5.8320312,5.5507812 5.6368815,5.7190755 5.5410156,5.9503581 5.5410156,6.2421875 c 0,0.2685547 0.088542,0.4788411 0.2675782,0.6328125 0.1808268,0.1539714 0.4695638,0.2636719 0.8652343,0.328125 V 8.4277344 C 6.4750977,8.425944 6.2817383,8.3971354 6.09375,8.3398438 5.9075521,8.2807617 5.7236328,8.1927083 5.5410156,8.078125 V 8.5625 c 0.1897787,0.080566 0.378418,0.1404622 0.5664063,0.1816406 0.1879883,0.039388 0.3745117,0.060872 0.5625,0.064453 l 0.00391,0.8085937 H 6.9414062 V 8.8027344 C 7.3245443,8.7758789 7.6180013,8.6756185 7.8203125,8.5019531 8.0244141,8.3264974 8.1269531,8.0877279 8.1269531,7.7851562 8.1269531,7.5058594 8.0314128,7.2861328 7.8398438,7.125 7.6482747,6.9638672 7.347819,6.8517253 6.9414062,6.7890625 V 5.6425781 c 0.1647136,0.00716 0.3247071,0.031087 0.4804688,0.072266 0.1575521,0.041178 0.3123372,0.1005859 0.4609375,0.1757812 V 5.4199219 C 7.7342122,5.371582 7.581543,5.3334961 7.4257812,5.3066406 7.2700195,5.2779948 7.1079102,5.2610677 6.9414062,5.2539062 V 4.6308594 Z m 0,1.0097656 V 6.7402344 C 6.4500326,6.7026367 6.2875977,6.6425781 6.1855469,6.5566406 6.0852865,6.4707031 6.0351562,6.3492839 6.0351562,6.1953125 c 0,-0.1575521 0.052897,-0.2840169 0.1621094,-0.3789063 C 6.3064779,5.7215169 6.4661458,5.6638997 6.6738281,5.640625 Z M 1.8847656,6.6660156 a 0.18403938,0.59772265 0 0 1 0.00977,0 A 0.18403938,0.59772265 0 0 1 2.0800781,7.2636719 0.18403938,0.59772265 0 0 1 1.8945312,7.8613281 0.18403938,0.59772265 0 0 1 1.7109375,7.2636719 0.18403938,0.59772265 0 0 1 1.8847656,6.6660156 Z m 10.2792964,0 a 0.18403938,0.59772265 0 0 1 0.002,0 0.18403938,0.59772265 0 0 1 0.0098,0 0.18403938,0.59772265 0 0 1 0.183594,0.5976563 0.18403938,0.59772265 0 0 1 -0.183594,0.5976562 0.18403938,0.59772265 0 0 1 -0.185547,-0.5976562 0.18403938,0.59772265 0 0 1 0.173828,-0.5976563 z M 6.9414062,7.2558594 c 0.2381185,0.042969 0.4122722,0.1119791 0.5214844,0.2050781 0.1110026,0.093099 0.1660156,0.2174479 0.1660156,0.375 0,0.1611328 -0.057454,0.2921549 -0.1738281,0.390625 -0.1145833,0.09847 -0.2862955,0.1629232 -0.5136719,0.1933594 z" />
  </g>
</svg>
