<?xml version="1.0" encoding="UTF-8" standalone="no"?>
<svg
   xmlns:dc="http://purl.org/dc/elements/1.1/"
   xmlns:cc="http://creativecommons.org/ns#"
   xmlns:rdf="http://www.w3.org/1999/02/22-rdf-syntax-ns#"
   xmlns:svg="http://www.w3.org/2000/svg"
   xmlns="http://www.w3.org/2000/svg"
   xmlns:sodipodi="http://sodipodi.sourceforge.net/DTD/sodipodi-0.dtd"
   xmlns:inkscape="http://www.inkscape.org/namespaces/inkscape"
   width="16"
   height="16"
   version="1.1"
   id="svg4"
   sodipodi:docname="finance-eletronic-payment-symbolic.svg"
   inkscape:version="1.0.2 (e86c870879, 2021-01-15, custom)">
  <metadata
     id="metadata10">
    <rdf:RDF>
      <cc:Work
         rdf:about="">
        <dc:format>image/svg+xml</dc:format>
        <dc:type
           rdf:resource="http://purl.org/dc/dcmitype/StillImage" />
        <dc:title />
      </cc:Work>
    </rdf:RDF>
  </metadata>
  <defs
     id="defs8" />
  <sodipodi:namedview
     pagecolor="#ffffff"
     bordercolor="#666666"
     borderopacity="1"
     objecttolerance="10"
     gridtolerance="10"
     guidetolerance="10"
     inkscape:pageopacity="0"
     inkscape:pageshadow="2"
     inkscape:window-width="1366"
     inkscape:window-height="708"
     id="namedview6"
     showgrid="false"
     showguides="false"
     inkscape:zoom="29.437191"
     inkscape:cx="14.326773"
     inkscape:cy="6.0503021"
     inkscape:window-x="0"
     inkscape:window-y="32"
     inkscape:window-maximized="1"
     inkscape:current-layer="layer1"
     inkscape:document-rotation="0" />
  <g
     inkscape:groupmode="layer"
     id="layer1"
     inkscape:label="layer"
     style="display:inline">
    <path
       id="rect8"
       style="fill:#000000"
       d="M 14.5625,5.3339844 V 11.785156 H 2.9472656 v 0.511719 H 14.5625 15.097656 V 11.785156 5.3339844 Z"
       inkscape:label="base_one" />
    <path
       id="rect8-3"
       style="display:inline;fill:#000000"
       d="m 13.627235,4.522 v 6.451172 H 2.012 v 0.511719 h 11.615235 0.535156 V 10.973172 4.522 Z"
       inkscape:label="base_two" />
    <path
       id="rect33"
       style="fill:#000000;stroke-width:0.853003"
       inkscape:label="eletronic_payment"
       d="m 4.8300781,0.28515625 c -0.3624551,0 -0.6542968,0.36357809 -0.6542969,0.81640625 v 8.8144531 c 0,0.4528284 0.2918418,0.8183594 0.6542969,0.8183594 h 4.453125 c 0.362455,0 0.6542969,-0.365531 0.6542969,-0.8183594 V 1.1015625 c 0,-0.45282816 -0.2918419,-0.81640625 -0.6542969,-0.81640625 z m 1.6523438,0.42773437 a 0.24645723,0.30790785 0 0 1 0.015625,0 A 0.24645723,0.30790785 0 0 1 6.7441406,1.0214844 0.24645723,0.30790785 0 0 1 6.4980469,1.328125 0.24645723,0.30790785 0 0 1 6.25,1.0214844 0.24645723,0.30790785 0 0 1 6.4824219,0.71289062 Z m 0.5605469,0 a 0.24645723,0.30790785 0 0 1 0.013672,0 A 0.24645723,0.30790785 0 0 1 7.3046875,1.0214844 0.24645723,0.30790785 0 0 1 7.0566406,1.328125 0.24645723,0.30790785 0 0 1 6.8125,1.0214844 0.24645723,0.30790785 0 0 1 7.0429688,0.71289062 Z m 0.5605468,0 a 0.24645723,0.30790785 0 0 1 0.015625,0 A 0.24645723,0.30790785 0 0 1 7.8632812,1.0214844 0.24645723,0.30790785 0 0 1 7.6191406,1.328125 0.24645723,0.30790785 0 0 1 7.3710938,1.0214844 0.24645723,0.30790785 0 0 1 7.6035156,0.71289062 Z M 4.5898438,2.0078125 H 9.5214844 V 8.8320312 H 4.5898438 Z m 2.4375,0.734375 A 2.2411908,2.8 0 0 0 4.8144531,5.5429688 2.2411908,2.8 0 0 0 7.0566406,8.3417969 2.2411908,2.8 0 0 0 9.2988281,5.5429688 2.2411908,2.8 0 0 0 7.0566406,2.7421875 a 2.2411908,2.8 0 0 0 -0.029297,0 z M 6.9335938,3.125 H 7.140625 v 0.6035156 c 0.1292352,0.00694 0.2560556,0.024957 0.3769531,0.052734 0.1208975,0.026042 0.2381766,0.0625 0.3535157,0.109375 V 4.3457031 C 7.7557546,4.2727865 7.6379121,4.2157118 7.515625,4.1757812 7.3947276,4.1358507 7.2684706,4.1124132 7.140625,4.1054688 V 5.21875 c 0.3154452,0.060764 0.5485755,0.1679688 0.6972656,0.3242188 0.14869,0.1562498 0.2226563,0.3697918 0.2226563,0.640625 0,0.2934026 -0.079864,0.5251737 -0.2382813,0.6953124 C 7.6652378,7.047309 7.438005,7.1458333 7.140625,7.171875 V 7.9609375 H 6.9335938 L 6.9296875,7.1757812 C 6.7837767,7.172309 6.6380983,7.1514757 6.4921875,7.1132812 6.3462767,7.0733507 6.2000348,7.015625 6.0527344,6.9375 V 6.46875 c 0.1417419,0.111111 0.2851663,0.1946615 0.4296875,0.2519531 0.1459107,0.055556 0.2969233,0.084202 0.4511719,0.085937 v -1.1875 C 6.6264862,5.5566412 6.4020709,5.4500868 6.2617188,5.3007812 6.1227562,5.1514758 6.0527344,4.9479165 6.0527344,4.6875 c 0,-0.2829859 0.075093,-0.5067275 0.2265625,-0.6699219 0.1514692,-0.1631943 0.370813,-0.2569444 0.6542969,-0.28125 z m 0,0.9785156 c -0.1611967,0.02257 -0.2843734,0.079861 -0.3691407,0.171875 -0.084767,0.092014 -0.1289062,0.2144098 -0.1289062,0.3671875 0,0.1493055 0.039369,0.2662761 0.1171875,0.3496094 0.079209,0.083333 0.207156,0.1432292 0.3808594,0.1796875 z M 7.140625,5.671875 v 1.1269531 c 0.1764825,-0.029514 0.3114545,-0.092014 0.4003906,-0.1875 0.090326,-0.095486 0.1328125,-0.2207032 0.1328125,-0.3769531 0,-0.1527777 -0.040796,-0.2749567 -0.1269531,-0.3652344 C 7.4621077,5.7788629 7.3254452,5.7135416 7.140625,5.671875 Z M 6.2324219,9.6582031 h 1.6503906 c 0.088687,0 0.1582031,0.069596 0.1582031,0.15625 0,0.086654 -0.069516,0.15625 -0.1582031,0.15625 H 6.2324219 c -0.088687,0 -0.1601563,-0.069596 -0.1601563,-0.15625 0,-0.086654 0.07147,-0.15625 0.1601563,-0.15625 z" />
  </g>
</svg>
