<?xml version="1.0" encoding="UTF-8" standalone="no"?>
<svg
   xmlns:dc="http://purl.org/dc/elements/1.1/"
   xmlns:cc="http://creativecommons.org/ns#"
   xmlns:rdf="http://www.w3.org/1999/02/22-rdf-syntax-ns#"
   xmlns:svg="http://www.w3.org/2000/svg"
   xmlns="http://www.w3.org/2000/svg"
   xmlns:sodipodi="http://sodipodi.sourceforge.net/DTD/sodipodi-0.dtd"
   xmlns:inkscape="http://www.inkscape.org/namespaces/inkscape"
   width="16"
   height="16"
   version="1.1"
   id="svg4"
   sodipodi:docname="finance-transfer-symbolic.svg"
   inkscape:version="1.0.2 (e86c870879, 2021-01-15, custom)">
  <metadata
     id="metadata10">
    <rdf:RDF>
      <cc:Work
         rdf:about="">
        <dc:format>image/svg+xml</dc:format>
        <dc:type
           rdf:resource="http://purl.org/dc/dcmitype/StillImage" />
        <dc:title />
      </cc:Work>
    </rdf:RDF>
  </metadata>
  <defs
     id="defs8" />
  <sodipodi:namedview
     pagecolor="#ffffff"
     bordercolor="#666666"
     borderopacity="1"
     objecttolerance="10"
     gridtolerance="10"
     guidetolerance="10"
     inkscape:pageopacity="0"
     inkscape:pageshadow="2"
     inkscape:window-width="1366"
     inkscape:window-height="708"
     id="namedview6"
     showgrid="false"
     showguides="false"
     inkscape:zoom="29.437191"
     inkscape:cx="7.9058066"
     inkscape:cy="5.9427829"
     inkscape:window-x="0"
     inkscape:window-y="32"
     inkscape:window-maximized="1"
     inkscape:current-layer="layer1"
     inkscape:document-rotation="0" />
  <g
     inkscape:groupmode="layer"
     id="layer1"
     inkscape:label="layer"
     style="display:inline">
    <path
       id="rect8"
       style="fill:#000000"
       d="M 14.5625,5.3339844 V 11.785156 H 2.9472656 v 0.511719 H 14.5625 15.097656 V 11.785156 5.3339844 Z"
       inkscape:label="base_one" />
    <path
       id="rect8-3"
       style="display:inline;fill:#000000"
       d="m 13.627235,4.522 v 6.451172 H 2.012 v 0.511719 h 11.615235 0.535156 V 10.973172 4.522 Z"
       inkscape:label="base_two" />
    <path
       id="path54"
       style="fill:#000000;fill-rule:evenodd"
       d="m 7.3300781,0.68945312 a 5,5 0 0 0 -4.625,3.10351568 H 3.2480469 A 4.5,4.5 0 0 1 7.21875,1.1894531 a 4.5,4.5 0 0 1 0.1113281,0 4.5,4.5 0 0 1 4.0800779,2.6035157 h 0.544922 A 5,5 0 0 0 7.3300781,0.68945312 Z M 2.609375,7.3378906 A 5,5 0 0 0 7.3300781,10.689453 5,5 0 0 0 12.050781,7.3378906 H 11.515625 A 4.5,4.5 0 0 1 7.3300781,10.189453 4.5,4.5 0 0 1 3.1445312,7.3378906 Z" />
    <path
       style="fill:none;stroke:#000000;stroke-width:0.475104px;stroke-linecap:butt;stroke-linejoin:miter;stroke-opacity:1"
       d="M 13.143859,3.6122431 C 11.719232,5.1418973 11.719232,5.1418973 11.719232,5.1418973 L 10.299851,3.6841903"
       id="path64" />
    <path
       style="display:inline;fill:none;stroke:#000000;stroke-width:0.475104px;stroke-linecap:butt;stroke-linejoin:miter;stroke-opacity:1"
       d="m 1.4284157,7.4984716 c 1.424627,-1.5296542 1.424627,-1.5296542 1.424627,-1.5296542 l 1.419381,1.457707"
       id="path64-3" />
    <text
       xml:space="preserve"
       style="font-style:normal;font-variant:normal;font-weight:normal;font-stretch:normal;font-size:8px;line-height:1.25;font-family:sans-serif;-inkscape-font-specification:sans-serif"
       x="4.7760162"
       y="8.0666866"
       id="text88"><tspan
         sodipodi:role="line"
         id="tspan86"
         x="4.7760162"
         y="8.0666866">$</tspan></text>
  </g>
</svg>
