<?xml version="1.0" encoding="UTF-8" standalone="no"?>
<svg
   xmlns:dc="http://purl.org/dc/elements/1.1/"
   xmlns:cc="http://creativecommons.org/ns#"
   xmlns:rdf="http://www.w3.org/1999/02/22-rdf-syntax-ns#"
   xmlns:svg="http://www.w3.org/2000/svg"
   xmlns="http://www.w3.org/2000/svg"
   xmlns:sodipodi="http://sodipodi.sourceforge.net/DTD/sodipodi-0.dtd"
   xmlns:inkscape="http://www.inkscape.org/namespaces/inkscape"
   width="16"
   height="16"
   version="1.1"
   id="svg4"
   sodipodi:docname="finance-credit-card-symbolic.svg"
   inkscape:version="1.0.2 (e86c870879, 2021-01-15, custom)">
  <metadata
     id="metadata10">
    <rdf:RDF>
      <cc:Work
         rdf:about="">
        <dc:format>image/svg+xml</dc:format>
        <dc:type
           rdf:resource="http://purl.org/dc/dcmitype/StillImage" />
        <dc:title />
      </cc:Work>
    </rdf:RDF>
  </metadata>
  <defs
     id="defs8" />
  <sodipodi:namedview
     pagecolor="#ffffff"
     bordercolor="#666666"
     borderopacity="1"
     objecttolerance="10"
     gridtolerance="10"
     guidetolerance="10"
     inkscape:pageopacity="0"
     inkscape:pageshadow="2"
     inkscape:window-width="1366"
     inkscape:window-height="708"
     id="namedview6"
     showgrid="false"
     showguides="false"
     inkscape:zoom="29.437191"
     inkscape:cx="8.8460945"
     inkscape:cy="8.2903165"
     inkscape:window-x="0"
     inkscape:window-y="32"
     inkscape:window-maximized="1"
     inkscape:current-layer="layer1"
     inkscape:document-rotation="0" />
  <g
     inkscape:groupmode="layer"
     id="layer1"
     inkscape:label="layer"
     style="display:inline">
    <path
       id="rect8"
       style="fill:#000000"
       d="M 14.5625,5.3339844 V 11.785156 H 2.9472656 v 0.511719 H 14.5625 15.097656 V 11.785156 5.3339844 Z"
       inkscape:label="base_one" />
    <path
       id="rect8-3"
       style="display:inline;fill:#000000"
       d="m 13.627235,4.522 v 6.451172 H 2.012 v 0.511719 h 11.615235 0.535156 V 10.973172 4.522 Z"
       inkscape:label="base_two" />
    <path
       id="rect33"
       style="fill:#000000;stroke-width:1.01988"
       inkscape:label="credit_card"
       d="m 1.2070312,3.6855469 c -0.1661999,0 -0.3007812,0.1345812 -0.3007812,0.3007812 v 6.4003909 c 0,0.1662 0.1345814,0.298828 0.3007812,0.298828 H 12.90625 c 0.1662,0 0.298828,-0.132628 0.298828,-0.298828 V 3.9863281 c 0,-0.1662 -0.132628,-0.3007812 -0.298828,-0.3007812 z M 1.484375,4.3613281 H 12.666016 V 5.0507812 H 1.484375 Z m 0,2.3222657 H 12.666016 V 10.105469 H 1.484375 Z m 8.4609375,0.765625 A 0.94608337,1.1088817 0 0 0 8.9980469,8.5585938 0.94608337,1.1088817 0 0 0 9.9453125,9.6660156 0.94608337,1.1088817 0 0 0 10.630859,9.3183594 0.94608337,1.1088817 0 0 0 11.320312,9.6660156 0.94608337,1.1088817 0 0 0 12.265625,8.5585938 0.94608337,1.1088817 0 0 0 11.320312,7.4492188 0.94608337,1.1088817 0 0 0 10.632812,7.796875 0.94608337,1.1088817 0 0 0 9.9453125,7.4492188 Z" />
  </g>
</svg>
