<?xml version="1.0" encoding="UTF-8" standalone="no"?>
<svg
   xmlns:dc="http://purl.org/dc/elements/1.1/"
   xmlns:cc="http://creativecommons.org/ns#"
   xmlns:rdf="http://www.w3.org/1999/02/22-rdf-syntax-ns#"
   xmlns:svg="http://www.w3.org/2000/svg"
   xmlns="http://www.w3.org/2000/svg"
   xmlns:sodipodi="http://sodipodi.sourceforge.net/DTD/sodipodi-0.dtd"
   xmlns:inkscape="http://www.inkscape.org/namespaces/inkscape"
   width="16"
   height="16"
   version="1.1"
   id="svg4"
   sodipodi:docname="finance-deposit-symbolic.svg"
   inkscape:version="1.0.2 (e86c870879, 2021-01-15, custom)">
  <metadata
     id="metadata10">
    <rdf:RDF>
      <cc:Work
         rdf:about="">
        <dc:format>image/svg+xml</dc:format>
        <dc:type
           rdf:resource="http://purl.org/dc/dcmitype/StillImage" />
        <dc:title />
      </cc:Work>
    </rdf:RDF>
  </metadata>
  <defs
     id="defs8">
    <pattern
       patternUnits="userSpaceOnUse"
       width="8.5"
       height="8.5"
       patternTransform="translate(-9.4106789,0.43668365)"
       id="pattern62">
      <circle
         style="display:inline;fill:#aa0000;stroke:none;stroke-width:1.19783"
         id="circle38-3"
         cx="4.25"
         cy="4.25"
         r="4.25" />
    </pattern>
  </defs>
  <sodipodi:namedview
     pagecolor="#ffffff"
     bordercolor="#666666"
     borderopacity="1"
     objecttolerance="10"
     gridtolerance="10"
     guidetolerance="10"
     inkscape:pageopacity="0"
     inkscape:pageshadow="2"
     inkscape:window-width="1366"
     inkscape:window-height="708"
     id="namedview6"
     showgrid="false"
     showguides="false"
     inkscape:zoom="29.437191"
     inkscape:cx="7.8992524"
     inkscape:cy="3.4149261"
     inkscape:window-x="0"
     inkscape:window-y="32"
     inkscape:window-maximized="1"
     inkscape:current-layer="layer1"
     inkscape:document-rotation="0" />
  <g
     inkscape:groupmode="layer"
     id="layer1"
     inkscape:label="layer"
     style="display:inline">
    <path
       id="rect8"
       style="fill:#000000"
       d="M 14.5625,5.3339844 V 11.785156 H 2.9472656 v 0.511719 H 14.5625 15.097656 V 11.785156 5.3339844 Z"
       inkscape:label="base_one" />
    <path
       id="rect8-3"
       style="display:inline;fill:#000000"
       d="m 13.627235,4.522 v 6.451172 H 2.012 v 0.511719 h 11.615235 0.535156 V 10.973172 4.522 Z"
       inkscape:label="base_two" />
    <path
       id="rect33"
       style="fill:#000000;stroke-width:0.754931"
       inkscape:label="deposit"
       d="m 6.9863281,0.78515625 a 4.5,4.5 0 0 0 -4.5,4.49999995 4.5,4.5 0 0 0 0.28125,1.5644532 H 1.2070312 c -0.1661999,0 -0.3007812,0.1345812 -0.3007812,0.3007812 v 3.2363284 c 0,0.1662 0.1345814,0.298828 0.3007812,0.298828 H 12.90625 c 0.1662,0 0.298828,-0.132628 0.298828,-0.298828 V 7.1503906 c 0,-0.1662 -0.132628,-0.3007812 -0.298828,-0.3007812 H 11.205078 A 4.5,4.5 0 0 0 11.486328,5.2851562 4.5,4.5 0 0 0 6.9863281,0.78515625 Z M 6.9257812,1.2851562 a 4,4 0 0 1 0.060547,0 4,4 0 0 1 3.9999999,4 4,4 0 0 1 -3.1796874,3.9140626 H 6.1621094 a 4,4 0 0 1 -3.1757813,-3.9140626 4,4 0 0 1 3.9394531,-4 z M 6.7539062,1.6582031 V 2.5761719 C 6.2226562,2.6126302 5.8151042,2.7532552 5.53125,2.9980469 5.2473958,3.2428385 5.1054688,3.577474 5.1054688,4.0019531 c 0,0.390625 0.1302083,0.6979167 0.390625,0.921875 0.2630208,0.2239584 0.6822916,0.3828125 1.2578124,0.4765625 v 1.78125 C 6.4648438,7.1790365 6.1835938,7.1360677 5.9101562,7.0527344 5.6393229,6.9667969 5.3710938,6.8404948 5.1054688,6.6738281 v 0.703125 C 5.3815104,7.4941406 5.65625,7.5826823 5.9296875,7.6425781 6.203125,7.6998698 6.4765625,7.7311198 6.75,7.7363281 l 0.00391,1.1757813 h 0.390625 V 7.7285156 C 7.7018229,7.6894531 8.1276042,7.5436198 8.421875,7.2910156 8.71875,7.0358073 8.8671875,6.688151 8.8671875,6.2480469 c 0,-0.40625 -0.1393229,-0.7265625 -0.4179687,-0.9609375 C 8.1705729,5.0527344 7.7356771,4.889974 7.1445312,4.7988281 V 3.1308594 C 7.3841146,3.141276 7.6171875,3.1764323 7.84375,3.2363281 8.0729167,3.296224 8.2955729,3.3808594 8.5117188,3.4902344 V 2.8066406 c -0.2161459,-0.070312 -0.4375,-0.125 -0.6640626,-0.1640625 -0.2265624,-0.041667 -0.4609374,-0.067708 -0.703125,-0.078125 v -0.90625 z m 0,1.46875 v 1.6015625 c -0.3255208,-0.054687 -0.5625,-0.1445312 -0.7109374,-0.2695312 -0.1458334,-0.125 -0.21875,-0.2994792 -0.21875,-0.5234375 0,-0.2291667 0.079427,-0.4127604 0.2382812,-0.5507813 C 6.2213542,3.2467448 6.4518229,3.1608073 6.7539062,3.1269531 Z m 0.390625,2.3515625 c 0.3463542,0.0625 0.5989584,0.1614584 0.7578126,0.296875 0.1614583,0.1354167 0.2421874,0.3177084 0.2421874,0.546875 0,0.234375 -0.084635,0.4231771 -0.2539062,0.5664063 C 7.7239583,7.031901 7.4752604,7.125651 7.1445312,7.1699219 Z M 1.578125,7.5371094 H 3.0917969 A 4.5,4.5 0 0 0 4.7675781,9.1992188 H 2.2753906 V 9.7949219 H 11.357422 V 9.1992188 H 9.2070312 A 4.5,4.5 0 0 0 10.880859,7.5371094 h 1.607422 V 9.9609375 H 1.578125 Z" />
  </g>
</svg>
