<?xml version="1.0" encoding="UTF-8" standalone="no"?>
<svg
   xmlns:dc="http://purl.org/dc/elements/1.1/"
   xmlns:cc="http://creativecommons.org/ns#"
   xmlns:rdf="http://www.w3.org/1999/02/22-rdf-syntax-ns#"
   xmlns:svg="http://www.w3.org/2000/svg"
   xmlns="http://www.w3.org/2000/svg"
   xmlns:sodipodi="http://sodipodi.sourceforge.net/DTD/sodipodi-0.dtd"
   xmlns:inkscape="http://www.inkscape.org/namespaces/inkscape"
   width="16"
   height="16"
   version="1.1"
   id="svg4"
   sodipodi:docname="finance-direct-debit-symbolic.svg"
   inkscape:version="1.0.2 (e86c870879, 2021-01-15, custom)">
  <metadata
     id="metadata10">
    <rdf:RDF>
      <cc:Work
         rdf:about="">
        <dc:format>image/svg+xml</dc:format>
        <dc:type
           rdf:resource="http://purl.org/dc/dcmitype/StillImage" />
        <dc:title></dc:title>
      </cc:Work>
    </rdf:RDF>
  </metadata>
  <defs
     id="defs8" />
  <sodipodi:namedview
     pagecolor="#ffffff"
     bordercolor="#666666"
     borderopacity="1"
     objecttolerance="10"
     gridtolerance="10"
     guidetolerance="10"
     inkscape:pageopacity="0"
     inkscape:pageshadow="2"
     inkscape:window-width="1366"
     inkscape:window-height="712"
     id="namedview6"
     showgrid="false"
     showguides="false"
     inkscape:zoom="29.437191"
     inkscape:cx="8.8460945"
     inkscape:cy="8.0185515"
     inkscape:window-x="0"
     inkscape:window-y="28"
     inkscape:window-maximized="1"
     inkscape:current-layer="layer1"
     inkscape:document-rotation="0" />
  <g
     inkscape:groupmode="layer"
     id="layer1"
     inkscape:label="layer"
     style="display:inline">
    <path
       id="rect8"
       style="fill:#000000"
       d="M 14.5625,5.3339844 V 11.785156 H 2.9472656 v 0.511719 H 14.5625 15.097656 V 11.785156 5.3339844 Z"
       inkscape:label="base_one" />
    <path
       id="rect8-3"
       style="display:inline;fill:#000000"
       d="m 13.627235,4.522 v 6.451172 H 2.012 v 0.511719 h 11.615235 0.535156 V 10.973172 4.522 Z"
       inkscape:label="base_two" />
    <path
       id="rect33"
       style="fill:#000000;stroke-width:1.01988"
       inkscape:label="base"
       d="M 1.2050781 3.6855469 C 1.0388781 3.6855469 0.90625 3.8201281 0.90625 3.9863281 L 0.90625 10.386719 C 0.90625 10.552919 1.0388781 10.685547 1.2050781 10.685547 L 12.904297 10.685547 C 13.070497 10.685547 13.205078 10.552919 13.205078 10.386719 L 13.205078 3.9863281 C 13.205078 3.8201281 13.070497 3.6855469 12.904297 3.6855469 L 1.2050781 3.6855469 z M 1.3515625 4.1347656 L 12.759766 4.1347656 L 12.759766 10.238281 L 1.3515625 10.238281 L 1.3515625 4.1347656 z " />
    <rect
       style="fill:#000000;stroke:#ff0000;stroke-width:0;stroke-linejoin:round;stroke-miterlimit:3.8"
       id="rect840"
       width="11.954517"
       height="0.42682976"
       x="1.1057074"
       y="9.1984758" />
    <path
       id="rect842"
       style="fill:#000000;stroke:#ff0000;stroke-width:0;stroke-linejoin:round;stroke-miterlimit:3.8"
       d="M 2.1191406 4.6445312 C 1.9529406 4.6445312 1.8183594 4.7791125 1.8183594 4.9453125 L 1.8183594 6.7792969 C 1.8183594 6.9454969 1.9529406 7.0800781 2.1191406 7.0800781 L 4.8417969 7.0800781 C 5.0079969 7.0800781 5.1425781 6.9454969 5.1425781 6.7792969 L 5.1425781 4.9453125 C 5.1425781 4.7791125 5.0079969 4.6445312 4.8417969 4.6445312 L 2.1191406 4.6445312 z M 2.1953125 5.0898438 L 4.765625 5.0898438 L 4.765625 6.6347656 L 2.1953125 6.6347656 L 2.1953125 5.0898438 z " />
    <rect
       style="fill:#000000;stroke:#ff0000;stroke-width:0;stroke-linejoin:round;stroke-miterlimit:3.8"
       id="rect848"
       width="2.5898595"
       height="0.3938719"
       x="2.204077"
       y="8.4350691" />
    <rect
       style="fill:#000000;stroke:#ff0000;stroke-width:0;stroke-linejoin:round;stroke-miterlimit:3.8"
       id="rect850"
       width="2.5898595"
       height="0.3938719"
       x="5.204"
       y="8.4350004" />
    <rect
       style="fill:#000000;stroke:#ff0000;stroke-width:0;stroke-linejoin:round;stroke-miterlimit:3.8"
       id="rect852"
       width="2.5898595"
       height="0.3938719"
       x="8.2040005"
       y="8.4350004" />
    <text
       xml:space="preserve"
       style="font-size:1px;line-height:1.25;font-family:sans-serif;-inkscape-font-specification:sans-serif"
       x="8.9763622"
       y="5.2442713"
       id="text856"><tspan
         sodipodi:role="line"
         id="tspan854"
         x="8.9763622"
         y="5.2442713">Direct</tspan><tspan
         sodipodi:role="line"
         x="8.9763622"
         y="6.4942713"
         id="tspan858">Debit</tspan></text>
  </g>
</svg>
